<svg width="40" height="40" viewBox="0 0 40 40" fill="none" xmlns="http://www.w3.org/2000/svg">
  <!-- Background Circle -->
  <circle cx="20" cy="20" r="20" fill="url(#gradient1)"/>
  
  <!-- Digital Wave Pattern -->
  <path d="M8 15 C12 11, 16 19, 20 15 C24 11, 28 19, 32 15" 
        stroke="white" 
        stroke-width="2" 
        fill="none" 
        stroke-linecap="round"/>
  
  <path d="M8 20 C12 16, 16 24, 20 20 C24 16, 28 24, 32 20" 
        stroke="white" 
        stroke-width="2" 
        fill="none" 
        stroke-linecap="round"/>
  
  <path d="M8 25 C12 21, 16 29, 20 25 C24 21, 28 29, 32 25" 
        stroke="white" 
        stroke-width="2" 
        fill="none" 
        stroke-linecap="round"/>
  
  <!-- Central Diamond -->
  <circle cx="20" cy="20" r="4" fill="white"/>
  <circle cx="20" cy="20" r="2" fill="url(#gradient2)"/>
  
  <!-- Gradient Definitions -->
  <defs>
    <linearGradient id="gradient1" x1="0%" y1="0%" x2="100%" y2="100%">
      <stop offset="0%" style="stop-color:#0066FF;stop-opacity:1" />
      <stop offset="100%" style="stop-color:#CC66FF;stop-opacity:1" />
    </linearGradient>
    <linearGradient id="gradient2" x1="0%" y1="0%" x2="100%" y2="100%">
      <stop offset="0%" style="stop-color:#0066FF;stop-opacity:1" />
      <stop offset="100%" style="stop-color:#0052CC;stop-opacity:1" />
    </linearGradient>
  </defs>
</svg>
